/* XPM */
static char * West_xpm[] = {
"64 64 91 1",
" 	c #B000FF",
".	c #B02DC8",
"+	c #B030BF",
"@	c #B01AEB",
"#	c #B024DD",
"$	c #B022E0",
"%	c #B01CE8",
"&	c #B02BCC",
"*	c #B025DA",
"=	c #B023DD",
"-	c #B02CCB",
";	c #B02ACE",
">	c #B01BEA",
",	c #B02BCD",
"'	c #B009FA",
")	c #B030C0",
"!	c #B005FC",
"~	c #B02CCA",
"{	c #B019ED",
"]	c #B00CF8",
"^	c #B018EE",
"/	c #B008FA",
"(	c #B008FB",
"_	c #B016F0",
":	c #B024DB",
"<	c #B023DE",
"[	c #B018ED",
"}	c #B020E2",
"|	c #B02CC9",
"1	c #B022DF",
"2	c #B028D3",
"3	c #B00BF9",
"4	c #B007FB",
"5	c #B02AD0",
"6	c #B02FC3",
"7	c #B001FF",
"8	c #B003FE",
"9	c #B02FC1",
"0	c #B02DC9",
"a	c #B010F5",
"b	c #B014F2",
"c	c #B01DE7",
"d	c #B01FE4",
"e	c #B026D9",
"f	c #B00DF7",
"g	c #B027D5",
"h	c #B02EC5",
"i	c #B00AFA",
"j	c #B026D8",
"k	c #B00EF7",
"l	c #B019EC",
"m	c #B02EC6",
"n	c #B01BE9",
"o	c #B00FF6",
"p	c #B01EE6",
"q	c #B02ACF",
"r	c #B015F1",
"s	c #B003FD",
"t	c #B027D6",
"u	c #B02FC2",
"v	c #B025DB",
"w	c #B029D1",
"x	c #B017EE",
"y	c #B011F5",
"z	c #B025D9",
"A	c #B021E0",
"B	c #B028D4",
"C	c #B01EE5",
"D	c #B01AEC",
"E	c #B02EC4",
"F	c #B028D5",
"G	c #B013F3",
"H	c #B002FE",
"I	c #B001FE",
"J	c #B02DC7",
"K	c #B012F3",
"L	c #B01BEB",
"M	c #B01CE9",
"N	c #B029D2",
"O	c #B020E3",
"P	c #B027D7",
"Q	c #B006FB",
"R	c #B00DF8",
"S	c #B00AF9",
"T	c #B012F4",
"U	c #B006FC",
"V	c #B01FE5",
"W	c #B021E1",
"X	c #B010F6",
"Y	c #B02BCE",
"Z	c #B024DC",
"                                                                ",
"                                                                ",
"                                                                ",
"                                                                ",
"                                                                ",
"                                                                ",
"                                                                ",
"                                                                ",
"                                                                ",
"                                                                ",
"                                                                ",
"  .++++++++@               #++++++++$               %++++++++&  ",
"  *++++++++=               -++++++++;               *++++++++=  ",
"  >++++++++,              '+++++++++)!              ~++++++++{  ",
"  ]++++++++)!             @++++++++++^             /+++++++++(  ",
"   .++++++++_             :++++++++++<             [++++++++&   ",
"   *++++++++}             |++++++++++,             1++++++++=   ",
"   >++++++++2            3++++++++++++4            5++++++++{   ",
"   3++++++++67           >++++++++++++{           89++++++++4   ",
"    0++++++++a           *++++++++++++=           b++++++++&    ",
"    *++++++++c           .++++++++++++-           d++++++++=    ",
"    >++++++++e          f++++++++++++++'          g++++++++{    ",
"    3++++++++0          %++++++.6++++++@          h++++++++4    ",
"     0++++++++i         j++++++2;++++++:         k++++++++,     ",
"     *++++++++l         m++++++1*++++++|         n++++++++<     ",
"     >++++++++<        o+++++++@p+++++++3        :++++++++[     ",
"     3++++++++q        c+++++++or+++++++>        -++++++++4     ",
"      |+++++++9s       t++++++u7!+++++++*       4++++++++,      ",
"      v++++++++r       h++++++w  -++++++.       x++++++++<      ",
"      >++++++++d      y+++++++1  z+++++++f      A++++++++[      ",
"      3++++++++B      C+++++++D  p+++++++%      w++++++++4      ",
"       |+++++++E      F+++++++]  G+++++++j     Hu+++++++,       ",
"       v++++++++o    I6++++++J   Hu++++++m     K++++++++<       ",
"       L++++++++M    K+++++++z    N+++++++o    p++++++++^       ",
"       3++++++++*    d+++++++M    O+++++++c    P+++++++)Q       ",
"        |+++++++~    2+++++++R    G+++++++P    J+++++++,        ",
"        v++++++++'  Hu++++++.     H6++++++h7  3++++++++<        ",
"        L++++++++{  G+++++++*      B+++++++a  l++++++++^        ",
"        S++++++++$  p+++++++>      d+++++++M  1+++++++)Q        ",
"         ~+++++++2  e+++++++]      T+++++++#  w+++++++,         ",
"         :+++++++m  &++++++0       IE++++++5  E+++++++<         ",
"         @++++++++'H)++++++*        g++++++6 f++++++++^         ",
"         S++++++++_y+++++++>        p+++++++]l+++++++)U         ",
"          ~+++++++V>+++++++3        y+++++++[W+++++++,          ",
"          :+++++++*$++++++~          h++++++Ot+++++++1          ",
"          @+++++++qg++++++:          t++++++z-+++++++^          ",
"          S+++++++h-++++++@          c++++++;9++++++)U          ",
"           ~+++++++)++++++S          X++++++)+++++++Y           ",
"           :+++++++++++++~            m+++++++++++++1           ",
"           @+++++++++++++Z            j+++++++++++++^           ",
"           i+++++++++++++D            %++++++++++++)U           ",
"            ~++++++++++++'            k++++++++++++;            ",
"            Z+++++++++++-              J+++++++++++1            ",
"            @+++++++++++#              z+++++++++++x            ",
"            i+++++++++++l              M++++++++++)U            ",
"             -++++++++++(              ]++++++++++;             ",
"                                                                ",
"                                                                ",
"                                                                ",
"                                                                ",
"                                                                ",
"                                                                ",
"                                                                ",
"                                                                ",
"                                                                "};
