/* XPM */
static char * East_xpm[] = {
"64 64 10 1",
" 	c #18FF00",
".	c #18F367",
"+	c #18E299",
"@	c #18FD27",
"#	c #18E397",
"$	c #18F074",
"%	c #18FE19",
"&	c #18E495",
"*	c #18E396",
"=	c #18F071",
"                                                                ",
"                                                                ",
"                                                                ",
"                                                                ",
"                                                                ",
"                                                                ",
"                                                                ",
"                                                                ",
"                                                                ",
"                                                                ",
"                    .+++++++++++++++++++++++++@                 ",
"                    .+++++++++++++++++++++++++@                 ",
"                    .+++++++++++++++++++++++++@                 ",
"                    .+++++++++++++++++++++++++@                 ",
"                    .+++++++++++++++++++++++++@                 ",
"                    .+++++++++++++++++++++++++@                 ",
"                    .+++++++++++++++++++++++++@                 ",
"                    .++++++++#$$$$$$$$$$$$$$$$%                 ",
"                    .++++++++&                                  ",
"                    .++++++++&                                  ",
"                    .++++++++&                                  ",
"                    .++++++++&                                  ",
"                    .++++++++&                                  ",
"                    .++++++++&                                  ",
"                    .++++++++&                                  ",
"                    .++++++++&                                  ",
"                    .++++++++&                                  ",
"                    .++++++++&                                  ",
"                    .+++++++++++++++++++++++*                   ",
"                    .+++++++++++++++++++++++*                   ",
"                    .+++++++++++++++++++++++*                   ",
"                    .+++++++++++++++++++++++*                   ",
"                    .+++++++++++++++++++++++*                   ",
"                    .+++++++++++++++++++++++*                   ",
"                    .+++++++++++++++++++++++*                   ",
"                    .++++++++#$$$$$$$$$$$$$$=                   ",
"                    .++++++++&                                  ",
"                    .++++++++&                                  ",
"                    .++++++++&                                  ",
"                    .++++++++&                                  ",
"                    .++++++++&                                  ",
"                    .++++++++&                                  ",
"                    .++++++++&                                  ",
"                    .++++++++&                                  ",
"                    .++++++++&                                  ",
"                    .++++++++&                                  ",
"                    .++++++++&                                  ",
"                    .++++++++#$$$$$$$$$$$$$$$$%                 ",
"                    .+++++++++++++++++++++++++@                 ",
"                    .+++++++++++++++++++++++++@                 ",
"                    .+++++++++++++++++++++++++@                 ",
"                    .+++++++++++++++++++++++++@                 ",
"                    .+++++++++++++++++++++++++@                 ",
"                    .+++++++++++++++++++++++++@                 ",
"                    .+++++++++++++++++++++++++@                 ",
"                                                                ",
"                                                                ",
"                                                                ",
"                                                                ",
"                                                                ",
"                                                                ",
"                                                                ",
"                                                                ",
"                                                                ",
"                                                                "};
