/* XPM */
static char * North_xpm[] = {
"64 64 68 1",
" 	c #002AFF",
".	c #1C50FF",
"+	c #2E6FFF",
"@	c #2661FF",
"#	c #235CFF",
"$	c #2A67FF",
"%	c #1546FF",
"&	c #012CFF",
"*	c #2C6BFF",
"=	c #0531FF",
"-	c #2158FF",
";	c #2E6EFF",
">	c #0D3AFF",
",	c #2660FF",
"'	c #1444FF",
")	c #2967FF",
"!	c #012BFF",
"~	c #1B4FFF",
"{	c #2057FF",
"]	c #2D6DFF",
"^	c #1D52FF",
"/	c #1F56FF",
"(	c #2058FF",
"_	c #1F55FF",
":	c #0430FF",
"<	c #2B6AFF",
"[	c #2D6EFF",
"}	c #0C39FF",
"|	c #1A4DFF",
"1	c #255FFF",
"2	c #225AFF",
"3	c #002BFF",
"4	c #2966FF",
"5	c #1343FF",
"6	c #245DFF",
"7	c #1A4EFF",
"8	c #2864FF",
"9	c #0B38FF",
"0	c #2A68FF",
"a	c #225BFF",
"b	c #1342FF",
"c	c #2159FF",
"d	c #2C6CFF",
"e	c #1545FF",
"f	c #2965FF",
"g	c #1E54FF",
"h	c #0E3BFF",
"i	c #2259FF",
"j	c #0633FF",
"k	c #0A37FF",
"l	c #194CFF",
"m	c #1D51FF",
"n	c #245EFF",
"o	c #184AFF",
"p	c #022DFF",
"q	c #1241FF",
"r	c #1648FF",
"s	c #2865FF",
"t	c #2762FF",
"u	c #0F3EFF",
"v	c #235BFF",
"w	c #0834FF",
"x	c #1E53FF",
"y	c #022EFF",
"z	c #2B69FF",
"A	c #1140FF",
"B	c #0A36FF",
"C	c #042FFF",
"                                                                ",
"                                                                ",
"                                                                ",
"                                                                ",
"                                                                ",
"                                                                ",
"                                                                ",
"                                                                ",
"                                                                ",
"                                                                ",
"                                                                ",
"           .+++++++++++@                  #+++++++$             ",
"           .++++++++++++%                 #+++++++$             ",
"           .++++++++++++$&                #+++++++$             ",
"           .+++++++++++++.                #+++++++$             ",
"           .+++++++++++++*=               #+++++++$             ",
"           .++++++++++++++-               #+++++++$             ",
"           .++++++++++++++;>              #+++++++$             ",
"           .+++++++++++++++,              #+++++++$             ",
"           .++++++++++++++++'             #+++++++$             ",
"           .++++++++++++++++)!            #+++++++$             ",
"           .+++++++++++++++++~            #+++++++$             ",
"           .+++++++{]++++++++*=           #+++++++$             ",
"           .+++++++^/+++++++++(           #+++++++$             ",
"           .+++++++_:<++++++++[}          #+++++++$             ",
"           .+++++++( |+++++++++1          #+++++++$             ",
"           .+++++++2 34+++++++++5         #+++++++$             ",
"           .+++++++6  5+++++++++4!        #+++++++$             ",
"           .+++++++1   1+++++++++7        #+++++++$             ",
"           .+++++++@   }[++++++++*:       #+++++++$             ",
"           .+++++++8    (+++++++++{       #+++++++$             ",
"           .+++++++4    =*++++++++[9      #+++++++$             ",
"           .+++++++0     ~+++++++++1      a+++++++$             ",
"           .+++++++<     &)+++++++++b     c+++++++$             ",
"           .+++++++d      e+++++++++f3    {+++++++$             ",
"           .+++++++]       @+++++++++|    g+++++++$             ",
"           .+++++++]       h;++++++++<:   ^+++++++$             ",
"           .+++++++]        i+++++++++/   ~+++++++$             ",
"           .+++++++]        jd++++++++]k  l+++++++$             ",
"           .+++++++]         m+++++++++n  o+++++++$             ",
"           .+++++++]         p0+++++++++q r+++++++$             ",
"           .+++++++]          r+++++++++s3e+++++++$             ",
"           .+++++++]           t+++++++++l5+++++++$             ",
"           .+++++++]           u+++++++++<'+++++++$             ",
"           .+++++++]            v+++++++++@+++++++$             ",
"           .+++++++]            w]++++++++++++++++$             ",
"           .+++++++]             x++++++++++++++++$             ",
"           .+++++++]             yz+++++++++++++++$             ",
"           .+++++++]              o+++++++++++++++$             ",
"           .+++++++]               8++++++++++++++$             ",
"           .+++++++]               A++++++++++++++$             ",
"           .+++++++]                6+++++++++++++$             ",
"           .+++++++]                B]++++++++++++$             ",
"           .+++++++]                 _++++++++++++$             ",
"           .+++++++]                 C<+++++++++++$             ",
"           .+++++++]                  l+++++++++++$             ",
"                                                                ",
"                                                                ",
"                                                                ",
"                                                                ",
"                                                                ",
"                                                                ",
"                                                                ",
"                                                                ",
"                                                                "};
