/* XPM */
static char * South_xpm[] = {
"64 64 78 1",
" 	c #FF0000",
".	c #FF0300",
"+	c #FF2400",
"@	c #FF3300",
"#	c #FF3800",
"$	c #FF3D00",
"%	c #FF3F00",
"&	c #FF3C00",
"*	c #FF3200",
"=	c #FF2300",
"-	c #FF0400",
";	c #FF0E00",
">	c #FF3900",
",	c #FF4E00",
"'	c #FF5900",
")	c #FF5B00",
"!	c #FF5100",
"~	c #FF4300",
"{	c #FF2B00",
"]	c #FF0B00",
"^	c #FF5800",
"/	c #FF4700",
"(	c #FF2900",
"_	c #FF5400",
":	c #FF5300",
"<	c #FF2A00",
"[	c #FF2D00",
"}	c #FF5A00",
"|	c #FF1C00",
"1	c #FF2800",
"2	c #FF4C00",
"3	c #FF3A00",
"4	c #FF5600",
"5	c #FF3E00",
"6	c #FF2700",
"7	c #FF1700",
"8	c #FF1600",
"9	c #FF2200",
"0	c #FF2C00",
"a	c #FF4A00",
"b	c #FF5700",
"c	c #FF3B00",
"d	c #FF1E00",
"e	c #FF4F00",
"f	c #FF1100",
"g	c #FF2E00",
"h	c #FF0F00",
"i	c #FF1900",
"j	c #FF4100",
"k	c #FF4B00",
"l	c #FF4600",
"m	c #FF4400",
"n	c #FF4900",
"o	c #FF0D00",
"p	c #FF4000",
"q	c #FF4D00",
"r	c #FF1400",
"s	c #FF0500",
"t	c #FF5500",
"u	c #FF3700",
"v	c #FF0100",
"w	c #FF5200",
"x	c #FF4500",
"y	c #FF3000",
"z	c #FF1F00",
"A	c #FF1B00",
"B	c #FF5000",
"C	c #FF2600",
"D	c #FF4200",
"E	c #FF2000",
"F	c #FF0C00",
"G	c #FF3500",
"H	c #FF1A00",
"I	c #FF4800",
"J	c #FF1500",
"K	c #FF1300",
"L	c #FF2F00",
"M	c #FF1000",
"                                                                ",
"                                                                ",
"                                                                ",
"                                                                ",
"                                                                ",
"                                                                ",
"                                                                ",
"                                                                ",
"                                                                ",
"                              .+@#$%&#*=-                       ",
"                           ;>,')))))))))'!~{-                   ",
"                         ]~^))))))))))))))))^/(                 ",
"                        (_))))))))))))))))))))):<               ",
"                       [}))))))))))))))))))))))}|               ",
"                      1')))))))))))))))))))))))2                ",
"                     -:))))))))))))))))))))))))[                ",
"                     3)))))))))))))))))))))))):                 ",
"                     :)))))))))4567890$ab)))))c                 ",
"                    d)))))))))ef        -g/')^h                 ",
"                    >))))))))'i            ;>&                  ",
"                    j))))))))k                                  ",
"                    l))))))))m                                  ",
"                    n))))))))n                                  ",
"                    /))))))))^o                                 ",
"                    p)))))))))n.                                ",
"                    @))))))))))q|                               ",
"                    r}))))))))))'%]                             ",
"                     a))))))))))))4>s                           ",
"                     d})))))))))))))t#s                         ",
"                      %)))))))))))))))tuv                       ",
"                      vk))))))))))))))))w{                      ",
"                       ]q)))))))))))))))))lo                    ",
"                        -x)))))))))))))))))_=                   ",
"                          y4))))))))))))))))^(                  ",
"                           hj')))))))))))))))^z                 ",
"                             ix}))))))))))))))!-                ",
"                               Ax})))))))))))))3                ",
"                                 A/})))))))))))t                ",
"                                   +B)))))))))))C               ",
"                                    vj))))))))))c               ",
"                                      5)))))))))x               ",
"                                      v_))))))))a               ",
"                                       x))))))))k               ",
"                                       ~))))))))n               ",
"                   |m=                 q))))))))D               ",
"                   E))BuF             E}))))))))G               ",
"                   E))))^xC          H:)))))))))i               ",
"                   E)))))))tI>0dJKdLm^)))))))))q                ",
"                   E)))))))))))))))))))))))))))0                ",
"                   E))))))))))))))))))))))))))n                 ",
"                   E))))))))))))))))))))))))):M                 ",
"                   E))))))))))))))))))))))))wi                  ",
"                   z)))))))))))))))))))))))xo                   ",
"                    Cl^)))))))))))))))))),{                     ",
"                      ]L~!}))))))))))'BDE                       ",
"                          vdLuc5p&#@Cs                          ",
"                                                                ",
"                                                                ",
"                                                                ",
"                                                                ",
"                                                                ",
"                                                                ",
"                                                                ",
"                                                                ",
"                                                                "};
